<svg width="35" height="54" viewBox="0 0 35 54" fill="none" xmlns="http://www.w3.org/2000/svg">
<path d="M31.6323 13.4152L29.3198 14.365L29.3198 14.365L31.6323 13.4152ZM0.72601 45.6365C0.409876 46.9805 1.24315 48.3264 2.58719 48.6425L24.4895 53.7942C25.8335 54.1103 27.1793 53.277 27.4955 51.933C27.8116 50.589 26.9783 49.2432 25.6343 48.927L6.16559 44.3477L10.7449 24.879C11.061 23.535 10.2277 22.1892 8.8837 21.873C7.53967 21.5569 6.19384 22.3902 5.8777 23.7342L0.72601 45.6365ZM7.00027 0.999902C5.24831 0.999915 4.33776 0.966092 4.04401 0.941639C3.90226 0.929839 4.06726 0.933433 4.29446 0.995123C4.32975 1.0047 4.62054 1.07806 4.94269 1.27822C5.08642 1.36751 5.51617 1.64862 5.81972 2.21053C6.22271 2.95647 6.22319 3.86568 5.80051 4.6191C5.48237 5.18617 5.03751 5.46185 4.88917 5.54894C4.69516 5.66286 4.52825 5.7249 4.44555 5.75345C4.27584 5.81205 4.14066 5.8371 4.09987 5.84453C3.91723 5.87782 3.88385 5.86185 4.26705 5.859C5.41406 5.8505 8.35069 5.95533 11.8832 6.42844C15.429 6.90332 19.429 7.73058 22.7823 9.10805C26.2176 10.5192 28.4712 12.299 29.3198 14.365L33.9449 12.4654C32.3252 8.52202 28.5158 6.05781 24.6822 4.48305C20.7667 2.87466 16.2921 1.97427 12.5469 1.47269C8.78845 0.969318 5.61762 0.848849 4.22996 0.859142C3.97949 0.861 3.53573 0.864985 3.20336 0.925561C3.14385 0.936408 2.99402 0.964985 2.81381 1.0272C2.72587 1.05757 2.55475 1.12145 2.35756 1.23722C2.20606 1.32618 1.75907 1.60374 1.43987 2.17271C1.01612 2.92803 1.01659 3.83917 1.42062 4.58706C1.72523 5.1509 2.15709 5.43398 2.304 5.52525C2.63253 5.72937 2.93398 5.80675 2.9843 5.82042C3.27161 5.89843 3.56655 5.91919 3.62922 5.9244C4.15319 5.96802 5.2522 5.99991 7.00031 5.9999L7.00027 0.999902ZM29.3198 14.365C30.1939 16.4934 29.9456 18.838 28.5807 21.5207C27.1943 24.2458 24.7547 27.0967 21.6703 29.9306C15.5089 35.5916 7.36056 40.6675 1.84355 44.0833L4.47565 48.3345C9.93097 44.9568 18.4872 39.6452 25.0531 33.6125C28.3324 30.5995 31.2621 27.2769 33.0372 23.7879C34.8337 20.2566 35.5388 16.3464 33.9449 12.4654L29.3198 14.365Z" fill="white"/>
</svg>
