<svg width="37" height="54" viewBox="0 0 37 54" fill="none" xmlns="http://www.w3.org/2000/svg">
<path d="M3.80585 13.6392L6.14649 14.5175L6.14649 14.5175L3.80585 13.6392ZM35.6899 44.8978C36.0472 46.2315 35.2557 47.6023 33.922 47.9596L12.1884 53.782C10.8547 54.1392 9.48388 53.3477 9.12659 52.014C8.7693 50.6804 9.56083 49.3096 10.8945 48.9523L30.2133 43.7769L25.0379 24.4581C24.6806 23.1244 25.4721 21.7536 26.8058 21.3963C28.1395 21.039 29.5103 21.8305 29.8676 23.1642L35.6899 44.8978ZM31.8882 0.472741C32.5609 0.452049 33.0372 0.428847 33.3445 0.407702C33.5009 0.396946 33.5918 0.388175 33.6331 0.38332C33.6552 0.380714 33.6404 0.381858 33.6026 0.388632C33.5834 0.392077 33.5412 0.400006 33.4847 0.413921C33.4405 0.424811 33.3202 0.455462 33.1698 0.516396C33.1472 0.525528 32.5822 0.726749 32.1404 1.2998C31.8544 1.67074 31.5324 2.32163 31.6435 3.15356C31.7476 3.93281 32.1756 4.42736 32.4247 4.65713C32.8558 5.05459 33.3132 5.18402 33.3521 5.19631C33.4878 5.23921 33.5947 5.25943 33.6367 5.26699C33.7752 5.2919 33.8482 5.28974 33.7435 5.28518C33.6052 5.27916 33.3275 5.27599 32.9068 5.28403C31.2413 5.31585 27.9143 5.51118 24.1068 6.08787C20.2805 6.66742 16.1058 7.6122 12.6694 9.08916C9.14396 10.6044 6.92178 12.4514 6.14649 14.5175L1.4652 12.761C2.97241 8.74425 6.78973 6.17397 10.6951 4.49547C14.6894 2.77871 19.3368 1.75333 23.358 1.14426C27.398 0.532342 30.9441 0.320616 32.8113 0.284939C33.2739 0.2761 33.6706 0.277274 33.961 0.289915C34.0706 0.294688 34.2966 0.305445 34.5219 0.345975C34.5857 0.357446 34.7102 0.381738 34.8593 0.428875C34.9115 0.445393 35.3781 0.579216 35.8141 0.981209C36.0657 1.21324 36.4951 1.71009 36.5995 2.49167C36.7109 3.32594 36.3881 3.9792 36.1003 4.35255C35.6548 4.9304 35.0817 5.13655 35.0467 5.15073C34.7745 5.26097 34.5309 5.30192 34.4855 5.31007C34.3869 5.32776 34.2929 5.34017 34.2172 5.34908C34.0626 5.36726 33.8824 5.38252 33.6877 5.39591C33.293 5.42307 32.7476 5.44867 32.0419 5.47038L31.8882 0.472741ZM6.14649 14.5175C5.33805 16.672 5.6584 19.0081 7.10516 21.6478C8.57478 24.3292 11.1011 27.104 14.2714 29.842C20.6043 35.3114 28.9054 40.1348 34.5252 43.3798L32.025 47.7098C26.468 44.5011 17.752 39.4546 11.0032 33.6261C7.6327 30.7151 4.60203 27.4839 2.72051 24.0509C0.816125 20.5762 -0.0088453 16.6893 1.4652 12.761L6.14649 14.5175Z" fill="white"/>
</svg>
