<svg width="27" height="45" viewBox="0 0 27 45" fill="none" xmlns="http://www.w3.org/2000/svg">
<path d="M25.4453 1.60534C25.2273 0.806102 24.4027 0.334885 23.6035 0.55285C22.8042 0.770814 22.333 1.59542 22.551 2.39466L25.4453 1.60534ZM20.6848 24.357L19.4992 23.4381L20.6848 24.357ZM0.632539 36.8814C0.290887 37.6361 0.625724 38.5248 1.38042 38.8665L13.6789 44.434C14.4336 44.7757 15.3224 44.4409 15.664 43.6862C16.0057 42.9315 15.6708 42.0427 14.9161 41.7011L3.98415 36.7521L8.93308 25.8201C9.27473 25.0655 8.9399 24.1767 8.1852 23.835C7.43051 23.4934 6.54174 23.8282 6.20009 24.5829L0.632539 36.8814ZM22.551 2.39466C23.2577 4.98619 23.7377 8.68358 23.4026 12.5398C23.0674 16.3972 21.9272 20.3056 19.4992 23.4381L21.8704 25.2759C24.7572 21.5514 26.0236 17.0313 26.3914 12.7995C26.7592 8.56642 26.2385 4.51381 25.4453 1.60534L22.551 2.39466ZM19.4992 23.4381C14.4063 30.0088 8.44645 33.4681 1.4702 36.0963L2.52787 38.9037C9.83741 36.1499 16.3338 32.4191 21.8704 25.2759L19.4992 23.4381Z" fill="white" fill-opacity="0.88"/>
</svg>
