<svg width="37" height="54" viewBox="0 0 37 54" fill="none" xmlns="http://www.w3.org/2000/svg">
<path d="M33.6312 13.4152L31.3187 14.365L33.6312 13.4152ZM2.72494 45.6364C2.4088 46.9805 3.24208 48.3263 4.58611 48.6424L26.4884 53.7941C27.8324 54.1103 29.1783 53.277 29.4944 51.933C29.8105 50.5889 28.9773 49.2431 27.6332 48.927L8.16452 44.3477L12.7438 24.879C13.0599 23.5349 12.2267 22.1891 10.8826 21.873C9.53859 21.5568 8.19276 22.3901 7.87663 23.7342L2.72494 45.6364ZM5.15964 1.11861C4.48669 1.1186 4.00991 1.11005 3.70207 1.09836C3.54548 1.09241 3.45437 1.08644 3.41297 1.08286C3.39074 1.08093 3.40562 1.08162 3.44358 1.08723C3.46288 1.09008 3.50534 1.09671 3.56221 1.10888C3.60672 1.11841 3.7279 1.14535 3.88015 1.20163C3.90297 1.21007 4.47393 1.39383 4.9331 1.95303C5.23034 2.31501 5.57223 2.95569 5.48674 3.79065C5.40667 4.57273 4.99409 5.08019 4.75207 5.31751C4.33342 5.72803 3.8802 5.87146 3.84174 5.88494C3.70741 5.93199 3.60121 5.95548 3.5594 5.96434C3.42179 5.99348 3.34867 5.99358 3.45319 5.98581C3.59125 5.97554 3.86874 5.96383 4.28937 5.95894C5.95499 5.93956 9.28618 6.03255 13.1093 6.49193C16.9513 6.95358 21.1527 7.76956 24.6326 9.14011C28.2027 10.5462 30.4804 12.3239 31.3187 14.365L35.9438 12.4654C34.3139 8.4971 30.4197 6.0455 26.4649 4.48792C22.4199 2.89482 17.7436 2.01281 13.7058 1.52764C9.64916 1.0402 6.09853 0.937556 4.23121 0.959277C3.7686 0.964658 3.37216 0.978021 3.08233 0.999578C2.97289 1.00772 2.74734 1.02541 2.52338 1.07285C2.46 1.08627 2.33634 1.11438 2.18876 1.16608C2.13704 1.18419 1.67478 1.33229 1.25136 1.74749C1.00696 1.98715 0.593055 2.49696 0.512742 3.28138C0.427016 4.11868 0.769743 4.76171 1.0689 5.12603C1.53193 5.68992 2.11108 5.87836 2.14651 5.89146C2.42197 5.99329 2.66673 6.02673 2.71236 6.03347C2.81146 6.04812 2.90573 6.05765 2.98172 6.06422C3.13676 6.07765 3.31735 6.08735 3.51235 6.09476C3.90769 6.10977 4.45359 6.1186 5.15956 6.11861L5.15964 1.11861ZM31.3187 14.365C32.1929 16.4934 31.9445 18.8379 30.5797 21.5206C29.1932 24.2458 26.7536 27.0966 23.6692 29.9305C17.5078 35.5916 9.35948 40.6674 3.84247 44.0833L6.47457 48.3344C11.9299 44.9567 20.4861 39.6451 27.0521 33.6124C30.3313 30.5994 33.2611 27.2768 35.0361 23.7879C36.8327 20.2565 37.5378 16.3463 35.9438 12.4654L31.3187 14.365Z" fill="white"/>
</svg>
