<svg width="32" height="40" viewBox="0 0 32 40" fill="none" xmlns="http://www.w3.org/2000/svg">
<path d="M24.2141 7.39112L23.1451 8.11218L24.2141 7.39112ZM18.5626 38.6392C18.8047 39.3089 19.5438 39.6555 20.2136 39.4134L31.1272 35.4681C31.7969 35.226 32.1436 34.4868 31.9015 33.8171C31.6594 33.1474 30.9202 32.8008 30.2505 33.0429L20.5494 36.5498L17.0425 26.8488C16.8004 26.1791 16.0612 25.8324 15.3915 26.0745C14.7218 26.3166 14.3751 27.0558 14.6172 27.7255L18.5626 38.6392ZM5.3085 0.263879C3.75334 0.388343 2.81726 0.43468 2.37098 0.441225C2.25905 0.442866 2.1962 0.441674 2.16981 0.440474C2.15385 0.439747 2.17175 0.439901 2.20797 0.444773C2.22482 0.447038 2.27096 0.453588 2.33155 0.46898C2.35428 0.474752 2.54582 0.519028 2.74758 0.661988C2.8536 0.737103 3.07744 0.91958 3.20416 1.25071C3.35389 1.64198 3.28991 2.03026 3.13817 2.31511C3.01136 2.55316 2.84309 2.68859 2.76779 2.74408C2.6804 2.80849 2.60335 2.84784 2.56078 2.86805C2.47589 2.90834 2.40756 2.92861 2.38566 2.93499C2.35592 2.94365 2.33437 2.94848 2.32623 2.95025C2.30538 2.95478 2.32184 2.95036 2.40273 2.94076C3.03254 2.86599 5.14996 2.74851 7.86664 2.87021C10.5786 2.99169 13.8044 3.34838 16.6818 4.18591C19.5978 5.03469 21.9313 6.31269 23.1451 8.11218L25.2831 6.67005C23.562 4.11858 20.5153 2.61589 17.4025 1.70982C14.2511 0.792494 10.7994 0.420136 7.98204 0.293929C5.16936 0.167932 2.90547 0.284108 2.09873 0.379876C2.00005 0.391591 1.88295 0.4075 1.77806 0.430316C1.75276 0.435822 1.60941 0.465003 1.45504 0.538267C1.40826 0.560468 1.32781 0.601777 1.23783 0.668093C1.15994 0.725497 0.989868 0.8628 0.86209 1.10268C0.709383 1.38935 0.645239 1.77942 0.795637 2.17242C0.92302 2.50528 1.14835 2.68945 1.25668 2.7662C1.46307 2.91244 1.66255 2.9598 1.69659 2.96845C1.76849 2.98672 1.82932 2.99593 1.86427 3.00063C1.93671 3.01037 2.00451 3.01448 2.05259 3.01667C2.15428 3.0213 2.27606 3.02176 2.4088 3.01981C2.9412 3.012 3.94457 2.96015 5.51423 2.83452L5.3085 0.263879ZM23.1451 8.11218C25.7598 11.9884 25.6155 17.4083 24.2172 23.0341C22.8326 28.6053 20.3092 34.0253 18.6078 37.6533L20.9426 38.7483C22.6353 35.1389 25.2662 29.5051 26.7199 23.6562C28.1601 17.862 28.5382 11.4958 25.2831 6.67005L23.1451 8.11218Z" fill="white" fill-opacity="0.88"/>
</svg>
