<svg width="28" height="47" viewBox="0 0 28 47" fill="none" xmlns="http://www.w3.org/2000/svg">
<path d="M1.50429 21.4934L2.77464 21.2723L1.50429 21.4934ZM27.2327 40.1046C27.5222 40.7552 27.2295 41.5174 26.5789 41.8069L15.9767 46.5255C15.326 46.8151 14.5639 46.5224 14.2743 45.8718C13.9848 45.2212 14.2775 44.459 14.9281 44.1695L24.3523 39.9752L20.158 30.5509C19.8685 29.9003 20.1612 29.1382 20.8118 28.8486C21.4624 28.5591 22.2245 28.8517 22.5141 29.5024L27.2327 40.1046ZM10.1925 3.25397C11.3997 2.26601 12.1065 1.65073 12.4327 1.34619C12.5145 1.26981 12.559 1.2254 12.5772 1.20625C12.5882 1.19467 12.5754 1.20719 12.5527 1.23581C12.5421 1.24912 12.5134 1.28583 12.4803 1.33892C12.468 1.35884 12.3606 1.5235 12.3142 1.76639C12.2898 1.89402 12.255 2.18066 12.3931 2.50715C12.5563 2.89294 12.8714 3.12852 13.1782 3.22874C13.4346 3.31249 13.6498 3.29351 13.7426 3.28134C13.8502 3.26721 13.933 3.24218 13.9777 3.22724C14.0669 3.19745 14.1302 3.16471 14.1504 3.15413C14.1779 3.13975 14.1967 3.12829 14.2038 3.12393C14.222 3.11274 14.2071 3.12096 14.1421 3.17009C13.6364 3.55262 12.0287 4.93525 10.1548 6.90559C8.28422 8.87251 6.20622 11.3651 4.71261 13.9628C3.19895 16.5954 2.40254 19.1339 2.77464 21.2723L0.233948 21.7144C-0.29363 18.6824 0.861071 15.4878 2.47694 12.6774C4.11285 9.83214 6.34279 7.17177 8.28614 5.12837C10.2262 3.08839 11.9386 1.60331 12.5865 1.11328C12.6657 1.05334 12.7612 0.983656 12.8526 0.927411C12.8747 0.913842 12.9982 0.835524 13.1603 0.781356C13.2094 0.764943 13.2961 0.738964 13.4069 0.724414C13.5028 0.711817 13.7206 0.69295 13.979 0.777346C14.2877 0.878204 14.6043 1.11496 14.7682 1.50246C14.907 1.83066 14.8722 2.11955 14.8473 2.24997C14.7999 2.49843 14.6889 2.67082 14.6704 2.70065C14.6312 2.76365 14.5937 2.81245 14.5718 2.84006C14.5263 2.89729 14.4803 2.94725 14.4472 2.98214C14.3771 3.05596 14.2896 3.14068 14.1926 3.23126C13.8034 3.59459 13.0442 4.25253 11.8257 5.24971L10.1925 3.25397ZM2.77464 21.2723C3.57616 25.8788 7.43615 29.6862 12.3426 32.7731C17.2014 35.8299 22.7764 37.9887 26.5169 39.4252L25.5924 41.8326C21.871 40.4035 16.0704 38.1651 10.9694 34.9559C5.91599 31.7766 1.23178 27.4491 0.233948 21.7144L2.77464 21.2723Z" fill="white" fill-opacity="0.88"/>
</svg>
