<svg width="416" height="418" viewBox="0 0 416 418" fill="none" xmlns="http://www.w3.org/2000/svg">
<path d="M274.967 39.8519C274.967 39.8519 208.207 14.8639 143.445 52.4839C78.6817 90.1039 46.7163 165.996 19.202 226.765C-8.31222 287.534 8.73545 349.933 58.8801 378.917C109.025 407.901 142.38 366.536 212.209 365.39C282.039 364.245 300.959 374.687 358.425 335.094C415.891 295.501 425.201 200.397 378.601 129.346C332.001 58.2941 274.967 39.8519 274.967 39.8519Z" fill="#202036"/>
<g opacity="0.3">
<path d="M313.487 57.751H282.828V120.451H313.487V57.751Z" stroke="black" stroke-miterlimit="10"/>
<path d="M347.917 57.751H317.258V120.451H347.917V57.751Z" stroke="black" stroke-miterlimit="10"/>
<path d="M382.343 57.751H351.684V120.451H382.343V57.751Z" stroke="black" stroke-miterlimit="10"/>
<path d="M313.487 123.687H282.828V186.387H313.487V123.687Z" stroke="black" stroke-miterlimit="10"/>
<path d="M347.917 123.687H317.258V186.387H347.917V123.687Z" stroke="black" stroke-miterlimit="10"/>
<path d="M382.343 123.687H351.684V186.387H382.343V123.687Z" stroke="black" stroke-miterlimit="10"/>
<path d="M313.487 189.63H282.828V252.33H313.487V189.63Z" stroke="black" stroke-miterlimit="10"/>
<path d="M347.917 189.63H317.258V252.33H347.917V189.63Z" stroke="black" stroke-miterlimit="10"/>
<path d="M382.343 189.63H351.684V252.33H382.343V189.63Z" stroke="black" stroke-miterlimit="10"/>
<path d="M313.487 255.574H282.828V318.274H313.487V255.574Z" stroke="black" stroke-miterlimit="10"/>
<path d="M347.917 255.574H317.258V318.274H347.917V255.574Z" stroke="black" stroke-miterlimit="10"/>
<path d="M382.343 255.574H351.684V318.274H382.343V255.574Z" stroke="black" stroke-miterlimit="10"/>
</g>
<path d="M21.582 324.794H409.935" stroke="#263238" stroke-miterlimit="10"/>
<path d="M46.2443 240.91C46.2404 240.901 46.2383 240.892 46.2383 240.882C46.2383 240.873 46.2403 240.863 46.2442 240.854C46.2482 240.846 46.254 240.838 46.2611 240.832C46.2683 240.825 46.2768 240.821 46.2859 240.818C46.3036 240.814 46.3222 240.816 46.3387 240.823C46.3552 240.831 46.3688 240.844 46.3774 240.86C48.4897 245.921 50.1599 251.158 51.3694 256.51C52.5765 261.86 53.482 267.275 54.0818 272.728L54.4645 276.824C54.531 277.51 54.5976 278.196 54.6475 278.881L54.764 280.938C54.8222 282.309 54.9054 283.68 54.9387 285.059V289.181V291.237C54.9387 291.923 54.8555 292.608 54.8056 293.294C54.7058 294.665 54.6226 296.036 54.4978 297.398C54.2398 300.132 53.8238 302.849 53.4078 305.558C53.4027 305.573 53.3932 305.585 53.3805 305.594C53.3678 305.603 53.3527 305.608 53.3371 305.608C53.3216 305.608 53.3064 305.603 53.2937 305.594C53.2811 305.585 53.2715 305.573 53.2664 305.558C53.2664 304.187 53.333 302.816 53.3579 301.453C53.3829 300.09 53.516 298.728 53.4994 297.357C53.4827 295.986 53.4994 294.631 53.4994 293.269V291.229V289.181V285.101L53.3912 281.013L53.3496 278.973C53.3496 278.296 53.2747 277.619 53.2331 276.933L52.9835 272.854C52.5084 267.413 51.7279 262.004 50.6456 256.652C49.6341 251.287 48.1615 246.02 46.2443 240.91Z" fill="#263238"/>
<path d="M45.6602 262.261C45.6653 262.247 45.6748 262.234 45.6875 262.225C45.7002 262.216 45.7153 262.211 45.7309 262.211C45.7464 262.211 45.7616 262.216 45.7743 262.225C45.7869 262.234 45.7965 262.247 45.8016 262.261C46.952 265.664 47.9157 269.128 48.6886 272.636C49.4559 276.155 50.0281 279.713 50.4026 283.295C50.7603 286.865 51.1597 290.443 51.2346 294.038C51.3191 297.634 51.1913 301.233 50.8518 304.814C50.8478 304.83 50.8395 304.845 50.8278 304.857C50.816 304.868 50.8014 304.877 50.7853 304.881C50.7759 304.882 50.7663 304.881 50.7572 304.878C50.7482 304.875 50.7398 304.871 50.7327 304.864C50.7256 304.858 50.72 304.85 50.7161 304.842C50.7123 304.833 50.7103 304.823 50.7104 304.814C50.2944 301.236 50.0448 297.666 49.7952 294.096C49.5456 290.527 49.5123 286.957 49.2794 283.387C49.0528 279.827 48.6307 276.283 48.0147 272.77C47.4223 269.226 46.6362 265.718 45.6602 262.261Z" fill="#263238"/>
<path d="M33.8781 269.777C33.8925 269.766 33.91 269.76 33.928 269.76C33.946 269.76 33.9635 269.766 33.9779 269.777C36.9243 271.682 39.5785 274.008 41.857 276.682C43.0015 278.028 44.0313 279.468 44.9354 280.988L45.5677 282.183L46.0669 283.437C46.2322 283.85 46.3766 284.272 46.4995 284.7C46.6243 285.126 46.7658 285.536 46.8823 285.979C47.7955 289.392 48.3532 292.891 48.5463 296.42C48.7199 299.931 48.589 303.45 48.1552 306.937C48.1532 306.953 48.1453 306.968 48.133 306.979C48.1207 306.99 48.105 306.996 48.0887 306.996C48.0788 306.997 48.0688 306.996 48.0593 306.993C48.0498 306.991 48.0409 306.986 48.0332 306.98C48.0254 306.974 48.019 306.966 48.0142 306.957C48.0095 306.948 48.0065 306.939 48.0055 306.929L47.1152 296.521C46.854 293.068 46.4012 289.632 45.7591 286.229C45.6675 285.811 45.5427 285.393 45.4346 284.984C45.3395 284.567 45.22 284.157 45.0768 283.755L44.6608 282.568L44.0951 281.422C43.2742 279.909 42.3309 278.466 41.2746 277.109C39.1685 274.353 36.6773 271.917 33.8781 269.877C33.8684 269.862 33.8633 269.845 33.8633 269.827C33.8633 269.809 33.8684 269.792 33.8781 269.777Z" fill="#263238"/>
<path d="M39.5794 283.153C41.1103 284.279 42.3418 285.766 43.1653 287.483C44.0273 289.17 44.6998 290.948 45.1704 292.784C45.3112 293.234 45.4279 293.692 45.5198 294.155L45.8443 295.542C46.0185 296.47 46.1352 297.409 46.1938 298.351C46.1938 299.296 46.1938 300.241 46.1938 301.185C46.1255 302.128 46.0033 303.066 45.8277 303.994C45.8239 304.008 45.8165 304.021 45.8063 304.031C45.7961 304.042 45.7834 304.049 45.7694 304.053C45.7601 304.055 45.7503 304.056 45.7408 304.054C45.7313 304.052 45.7223 304.049 45.7143 304.043C45.7064 304.037 45.6998 304.03 45.695 304.022C45.6901 304.013 45.6871 304.004 45.6862 303.994C45.4683 303.082 45.3017 302.158 45.187 301.227C45.0456 300.308 44.9042 299.396 44.7877 298.485C44.6712 297.574 44.5381 296.679 44.4715 295.76C44.405 294.84 44.2718 293.937 44.0805 293.043C43.762 291.241 43.2458 289.48 42.5413 287.793C41.909 286.071 40.8797 284.524 39.5378 283.278C39.5261 283.266 39.5195 283.249 39.5195 283.232C39.5195 283.215 39.5261 283.199 39.5378 283.186C39.542 283.178 39.5479 283.171 39.5551 283.165C39.5622 283.159 39.5705 283.155 39.5794 283.153Z" fill="#263238"/>
<path d="M56.1038 293.586C56.4949 288.963 57.252 284.39 57.9675 279.809C58.683 275.228 59.4817 270.68 60.3137 266.124C61.1457 261.567 62.0776 257.036 63.0593 252.522C63.0593 252.504 63.0663 252.487 63.0788 252.475C63.0913 252.462 63.1082 252.455 63.1259 252.455C63.1435 252.455 63.1605 252.462 63.173 252.475C63.1854 252.487 63.1925 252.504 63.1925 252.522C62.4104 257.081 61.6865 261.648 61.0209 266.224C60.3304 270.789 59.6814 275.37 59.1073 279.951C58.5333 284.532 58.1089 289.147 57.5349 293.712L55.8709 307.472C55.8688 307.488 55.8609 307.503 55.8486 307.514C55.8364 307.525 55.8206 307.531 55.8043 307.531C55.7949 307.532 55.7853 307.531 55.7763 307.528C55.7672 307.525 55.7588 307.521 55.7518 307.514C55.7447 307.508 55.739 307.5 55.7351 307.492C55.7313 307.483 55.7293 307.473 55.7294 307.464C55.6712 306.302 55.6712 305.148 55.6462 303.986C55.6213 302.824 55.6462 301.662 55.7128 300.5C55.7461 298.209 55.9374 295.894 56.1038 293.586Z" fill="#263238"/>
<path d="M58.8648 293.519C59.1144 291.689 59.4472 289.866 59.7967 288.052L60.4373 285.352C60.6536 284.457 60.8533 283.554 61.1112 282.66C62.0335 279.077 63.2096 275.565 64.6306 272.151L65.1797 270.88L65.7954 269.635C66.1864 268.799 66.6274 267.963 67.1016 267.194C68.0092 265.577 69.1285 264.089 70.4296 262.771C70.4429 262.758 70.4608 262.75 70.4795 262.75C70.4983 262.75 70.5162 262.758 70.5295 262.771C70.5427 262.785 70.5501 262.803 70.5501 262.821C70.5501 262.84 70.5427 262.858 70.5295 262.872C69.3218 264.237 68.3005 265.758 67.4927 267.394C67.0933 268.23 66.6607 269.025 66.3279 269.902L65.7871 271.156L65.3128 272.444C64.0407 275.868 63.0147 279.38 62.2427 282.952C61.8267 284.733 61.5522 286.547 61.2027 288.336L60.7368 291.028C60.5787 291.931 60.3874 292.825 60.2626 293.728C59.9714 295.542 59.6386 297.34 59.3307 299.146C59.0229 300.951 58.7234 302.774 58.3407 304.588C58.3356 304.604 58.3257 304.619 58.3123 304.629C58.299 304.639 58.2827 304.646 58.2658 304.647C58.2474 304.644 58.2304 304.636 58.2181 304.622C58.2058 304.608 58.1991 304.59 58.1992 304.571C58.1992 302.727 58.2408 300.879 58.324 299.029C58.4571 297.189 58.6735 295.359 58.8648 293.519Z" fill="#263238"/>
<path d="M62.6741 293.754C63.5061 291.329 64.5045 288.955 65.5861 286.622C66.6679 284.301 67.8905 282.047 69.2469 279.876C69.2586 279.864 69.2741 279.856 69.2908 279.854C69.3074 279.852 69.3243 279.856 69.3387 279.864C69.3531 279.873 69.3642 279.886 69.3701 279.902C69.3761 279.918 69.3767 279.935 69.3716 279.951C68.189 282.206 67.1443 284.532 66.2433 286.915C65.3115 289.273 64.4629 291.672 63.7473 294.113C63.0318 296.554 62.5077 299.029 61.867 301.47C61.2264 303.911 60.644 306.385 59.8952 308.86C59.8888 308.875 59.8783 308.887 59.8651 308.896C59.8518 308.905 59.8362 308.91 59.8203 308.91C59.8026 308.91 59.7857 308.903 59.7732 308.891C59.7607 308.878 59.7537 308.861 59.7537 308.843C59.7166 306.261 59.9565 303.683 60.4693 301.152C61.0035 298.63 61.7408 296.156 62.6741 293.754Z" fill="#263238"/>
<path d="M62.8332 301.796C63.2968 300.283 63.9779 298.847 64.8549 297.532C65.6666 296.178 66.6574 294.941 67.8002 293.854C68.383 293.328 69.0092 292.852 69.6722 292.433C70.3289 292.002 71.0472 291.675 71.8021 291.463C71.8187 291.46 71.8359 291.462 71.851 291.469C71.8661 291.477 71.8782 291.489 71.8853 291.505C71.897 291.517 71.9036 291.534 71.9036 291.551C71.9036 291.568 71.897 291.584 71.8853 291.597C70.5253 292.246 69.3217 293.185 68.3577 294.347C67.3632 295.475 66.5237 296.732 65.8617 298.084C65.1628 299.413 64.805 300.885 64.1977 302.264C63.9314 302.966 63.6652 303.677 63.3657 304.371C63.0891 305.112 62.7667 305.835 62.4005 306.536C62.3958 306.548 62.3878 306.558 62.3775 306.566C62.3672 306.573 62.355 306.577 62.3423 306.578C62.3224 306.578 62.3034 306.57 62.2894 306.556C62.2753 306.542 62.2674 306.523 62.2674 306.503C62.2411 305.716 62.2689 304.928 62.3506 304.145C62.4837 303.368 62.6418 302.632 62.8332 301.796Z" fill="#263238"/>
<path d="M62.544 259.16C64.8422 258.515 66.9212 257.251 68.5562 255.505C70.1913 253.759 71.3202 251.597 71.8208 249.253C73.5597 241.102 67.9604 244.597 72.9856 231.781C78.0109 218.965 76.8461 216.022 75.1072 212.344C73.3683 208.665 72.4032 209.836 70.8557 214.668C69.3082 219.5 63.7088 227.091 61.5706 241.269C59.4323 255.448 62.544 259.16 62.544 259.16Z" fill="#C964C0"/>
<path d="M47.6674 245.349C47.6674 245.349 52.6594 243.602 52.884 234.08C53.1086 224.558 49.2066 226.506 48.6325 214.66C48.0584 202.813 47.2763 194.47 45.1547 194.269C43.0331 194.069 37.4171 200.121 35.4869 213.305C33.5566 226.489 37.9829 235.25 41.8683 239.129C45.7538 243.008 47.6674 245.349 47.6674 245.349Z" fill="#C964C0"/>
<path d="M65.2539 270.596C65.2539 270.596 66.4104 263.599 68.7317 260.297C71.0529 256.994 76.0699 254.085 79.3563 247.673C82.6427 241.261 86.3201 238.159 86.1205 247.289C85.9208 256.418 81.8689 261.074 76.8437 264.176C71.8184 267.277 65.2539 270.596 65.2539 270.596Z" fill="#C964C0"/>
<path d="M67.3945 282.634C67.3945 282.634 72.0371 273.698 78.8012 267.093C85.5654 260.489 90.9734 257.195 89.0432 260.497C87.1129 263.799 84.7916 263.599 81.5052 269.426C78.2189 275.253 79.184 279.525 74.5497 282.802C69.9155 286.079 67.3945 282.634 67.3945 282.634Z" fill="#C964C0"/>
<path d="M67.957 294.088C68.1484 293.511 68.3398 289.239 74.9126 285.728C81.4854 282.217 87.6671 283.588 86.8934 285.335C86.1196 287.082 82.0678 290 78.0076 291.747C73.9474 293.494 67.957 294.088 67.957 294.088Z" fill="#C964C0"/>
<path d="M48.0487 270.981C48.0487 270.981 50.9524 267.294 49.4049 259.527C47.8574 251.761 44.4129 253.675 40.5108 249.621C36.6087 245.566 37.4408 244.948 33.5553 240.684C29.6699 236.42 26.2087 234.08 24.6612 235.827C23.1137 237.574 25.435 243.016 27.7563 246.126C30.0775 249.236 33.7467 250.783 35.4855 254.67C37.2244 258.558 36.4507 264.769 40.9019 267.678C45.3531 270.588 48.0487 270.981 48.0487 270.981Z" fill="#C964C0"/>
<path d="M38.3883 273.121C38.3883 273.121 31.4245 265.154 26.3992 259.327C21.3739 253.5 19.4437 249.036 19.2523 252.923C19.061 256.811 17.5134 259.912 21.5736 264.962C25.6338 270.011 38.3883 273.121 38.3883 273.121Z" fill="#C964C0"/>
<path d="M42.0584 285.912C42.0584 285.912 42.2497 282.802 31.2424 275.621C20.235 268.44 15.5758 267.094 16.7406 270.028C17.9054 272.962 22.731 275.88 27.9476 281.097C33.1643 286.313 42.0584 285.912 42.0584 285.912Z" fill="#C964C0"/>
<path d="M62.0859 258.324C62.0859 258.324 64.6735 244.396 67.3775 234.489C70.0815 224.583 71.8203 218.563 71.8203 218.563" stroke="#263238" stroke-linecap="round" stroke-linejoin="round"/>
<path d="M48.107 245.491C48.107 245.491 43.4145 230.393 41.867 221.247C40.3194 212.101 42.0583 205.321 42.8321 201.25" stroke="#263238" stroke-linecap="round" stroke-linejoin="round"/>
<path d="M65.8633 270.304C67.9446 266.707 70.3272 263.295 72.9852 260.105C77.2367 255.089 80.5231 252.338 82.4534 247.481" stroke="#263238" stroke-linecap="round" stroke-linejoin="round"/>
<path d="M48.0501 270.981C48.0501 270.981 46.5025 261.659 42.8334 256.769C39.1643 251.878 31.8177 244.346 28.9141 239.489" stroke="#263238" stroke-linecap="round" stroke-linejoin="round"/>
<path d="M68.4062 293.879C68.4062 293.879 74.9125 289.623 79.5551 287.291" stroke="#263238" stroke-linecap="round" stroke-linejoin="round"/>
<path d="M48.0305 345.334C46.5798 345.328 45.1839 344.777 44.116 343.791C43.048 342.804 42.3849 341.453 42.2564 340.001C41.2913 328.464 39.2778 302.548 40.3178 301.277C44.5777 296.061 62.9233 296.061 67.1831 301.277C68.2231 302.548 66.2097 328.464 65.2446 340.001C65.1153 341.461 64.4451 342.82 63.3666 343.808C62.2881 344.795 60.8798 345.34 59.4206 345.334H48.0305Z" fill="#263238" stroke="#263238" stroke-linecap="round" stroke-linejoin="round"/>
<path d="M155.412 246.779H150.902V264.903H155.412V246.779Z" fill="#263238" stroke="#263238" stroke-linecap="round" stroke-linejoin="round"/>
<path d="M225.025 246.779H220.516V264.903H225.025V246.779Z" fill="#263238" stroke="#263238" stroke-linecap="round" stroke-linejoin="round"/>
<path d="M160.769 187.573H213.601C215.192 187.573 216.718 188.208 217.843 189.339C218.968 190.469 219.6 192.002 219.6 193.601V272.703H154.754V193.601C154.754 192.808 154.91 192.023 155.212 191.29C155.515 190.558 155.958 189.893 156.517 189.333C157.076 188.773 157.739 188.329 158.469 188.027C159.198 187.725 159.98 187.571 160.769 187.573Z" fill="#ABABAB" stroke="#263238" stroke-linecap="round" stroke-linejoin="round"/>
<path d="M157.667 345.326C159.533 345.326 161.045 343.807 161.045 341.932C161.045 340.058 159.533 338.538 157.667 338.538C155.801 338.538 154.289 340.058 154.289 341.932C154.289 343.807 155.801 345.326 157.667 345.326Z" fill="white" stroke="#263238" stroke-linecap="round" stroke-linejoin="round"/>
<path d="M190.636 341.924C190.636 341.251 190.437 340.593 190.064 340.033C189.692 339.473 189.163 339.037 188.543 338.78C187.924 338.522 187.243 338.456 186.586 338.587C185.929 338.719 185.325 339.044 184.852 339.521C184.379 339.998 184.057 340.605 183.927 341.265C183.798 341.926 183.866 342.61 184.123 343.232C184.381 343.853 184.816 344.384 185.374 344.757C185.932 345.13 186.588 345.328 187.258 345.327C187.702 345.327 188.142 345.238 188.552 345.067C188.963 344.896 189.336 344.646 189.649 344.329C189.963 344.013 190.212 343.638 190.381 343.225C190.55 342.813 190.637 342.37 190.636 341.924Z" fill="white" stroke="#263238" stroke-linecap="round" stroke-linejoin="round"/>
<path d="M220.233 341.924C220.233 341.251 220.035 340.593 219.663 340.034C219.291 339.474 218.762 339.038 218.143 338.78C217.524 338.523 216.843 338.456 216.187 338.587C215.53 338.718 214.926 339.042 214.453 339.518C213.979 339.994 213.657 340.6 213.526 341.26C213.395 341.92 213.462 342.604 213.719 343.226C213.975 343.848 214.409 344.379 214.966 344.753C215.523 345.127 216.177 345.327 216.847 345.327C217.745 345.327 218.607 344.968 219.242 344.33C219.877 343.692 220.233 342.826 220.233 341.924Z" fill="white" stroke="#263238" stroke-linecap="round" stroke-linejoin="round"/>
<path d="M190.312 324.87V268.875H184.371V324.51L184.155 324.661L153.438 337.117V340.804H158.23V338.254L184.846 334.317L185.336 340.804H188.889L189.38 334.358L215.721 338.254V340.804H220.513V337.117L190.312 324.87Z" fill="#263238" stroke="#263238" stroke-linecap="round" stroke-linejoin="round"/>
<path d="M196.619 275.069H177.758V281.782H196.619V275.069Z" fill="#263238" stroke="#263238" stroke-linecap="round" stroke-linejoin="round"/>
<path d="M222.627 260.464H151.748C150.489 260.464 149.469 261.489 149.469 262.754V273.171C149.469 274.436 150.489 275.462 151.748 275.462H222.627C223.886 275.462 224.906 274.436 224.906 273.171V262.754C224.906 261.489 223.886 260.464 222.627 260.464Z" fill="#ABABAB" stroke="#263238" stroke-linecap="round" stroke-linejoin="round"/>
<path d="M152.956 236.295H147.432C146.389 236.295 145.543 237.145 145.543 238.193V248.275C145.543 249.323 146.389 250.173 147.432 250.173H152.956C153.999 250.173 154.845 249.323 154.845 248.275V238.193C154.845 237.145 153.999 236.295 152.956 236.295Z" fill="#ABABAB" stroke="#263238" stroke-linecap="round" stroke-linejoin="round"/>
<path d="M226.655 236.295H221.131C220.088 236.295 219.242 237.145 219.242 238.193V248.275C219.242 249.323 220.088 250.173 221.131 250.173H226.655C227.698 250.173 228.544 249.323 228.544 248.275V238.193C228.544 237.145 227.698 236.295 226.655 236.295Z" fill="#ABABAB" stroke="#263238" stroke-linecap="round" stroke-linejoin="round"/>
<path d="M85.572 258.416H285.668V238.854L85.572 238.854V258.416Z" fill="white" stroke="#263238" stroke-linecap="round" stroke-linejoin="round"/>
<path d="M85.572 244.053L285.668 244.053V238.853L85.572 238.853V244.053Z" fill="#263238" stroke="#263238" stroke-linecap="round" stroke-linejoin="round"/>
<path d="M283.562 345.335H286.399L287.339 238.569H282.613L283.562 345.335Z" fill="white" stroke="#263238" stroke-linecap="round" stroke-linejoin="round"/>
<path d="M84.573 345.335H87.4101L88.3586 238.569H83.6328L84.573 345.335Z" fill="white" stroke="#263238" stroke-linecap="round" stroke-linejoin="round"/>
<path d="M80.9962 240.417L290.211 240.417V236.003L80.9962 236.003V240.417Z" fill="white" stroke="#263238" stroke-linecap="round" stroke-linejoin="round"/>
<path d="M160.445 236.262H223.395V233.653H160.445V236.262Z" fill="white" stroke="#263238" stroke-linecap="round" stroke-linejoin="round"/>
<path d="M209.24 224.307H284.977V173.027H209.24V224.307Z" fill="#263238" stroke="#263238" stroke-linecap="round" stroke-linejoin="round"/>
<path d="M225.599 236.262H256.25V233.369H225.599V236.262Z" fill="#ABABAB" stroke="#263238" stroke-linecap="round" stroke-linejoin="round"/>
<path d="M237.979 236.262H256.25V203.064H237.979V236.262Z" fill="#ABABAB" stroke="#263238" stroke-linecap="round" stroke-linejoin="round"/>
<path d="M181.117 61.8809L189.654 64.021" stroke="#263238" stroke-miterlimit="10"/>
<path d="M194.988 44.7261L197.476 50.4443" stroke="#263238" stroke-miterlimit="10"/>
<path d="M245.497 61.8809L236.961 64.021" stroke="#263238" stroke-miterlimit="10"/>
<path d="M231.621 44.7261L229.133 50.4443" stroke="#263238" stroke-miterlimit="10"/>
<path d="M213.84 37.2188V44.3665" stroke="#263238" stroke-miterlimit="10"/>
<path d="M221.38 78.0405L219.649 67.2227C219.649 67.2227 218.817 59.8993 218.817 57.4916C218.817 55.084 217.944 54.8666 217.619 55.3097L216.637 55.8531C216.637 55.8531 216.313 53.0107 215.439 53.8885C214.906 54.4594 214.565 55.1849 214.466 55.9618C213.811 57.2003 213.335 58.5261 213.052 59.8993C212.841 61.156 212.697 62.4229 212.619 63.6948L212.07 62.9591C212.07 62.9591 211.745 59.3476 211.637 58.5868C211.529 57.826 210.331 58.6955 210.223 61.4292C210.14 63.561 211.379 69.0201 211.887 71.3191C211.596 73.7769 211.338 76.8367 211.704 78.2579C212.191 80.0013 213.004 81.6355 214.1 83.0732C214.532 83.7253 217.145 90.8313 217.145 90.8313L224.974 87.3368L221.38 78.0405Z" fill="white" stroke="#263238" stroke-miterlimit="10"/>
<path d="M218.444 73.6681C218.444 73.6681 216.156 69.4045 215.723 68.6521C215.29 67.8997 212.678 64.7146 212.021 62.9673C211.363 61.2201 209.849 63.6194 210.498 65.4753C211.147 67.3313 213.76 70.7171 213.76 70.7171C213.275 72.5273 213.391 74.4471 214.092 76.1845C214.872 77.7412 216.129 79.0045 217.678 79.7877" fill="white"/>
<path d="M218.444 73.6681C218.444 73.6681 216.156 69.4045 215.723 68.6521C215.29 67.8997 212.678 64.7146 212.021 62.9673C211.363 61.2201 209.849 63.6194 210.498 65.4753C211.147 67.3313 213.76 70.7171 213.76 70.7171C213.275 72.5273 213.391 74.4471 214.092 76.1845C214.872 77.7412 216.129 79.0045 217.678 79.7877" stroke="#263238" stroke-miterlimit="10"/>
<path d="M216.588 55.853C216.588 55.853 215.831 64.3802 216.155 67.6574" stroke="#263238" stroke-miterlimit="10"/>
<path d="M214.414 55.9619C214.414 55.9619 213.649 62.7419 214.09 65.5843" stroke="#263238" stroke-miterlimit="10"/>
<path d="M278.969 134.103C278.969 134.103 265.566 129.413 264.667 129.413C263.769 129.413 254.384 128.735 254.384 128.735L243.285 122.883L225.397 86.3921L214.855 91.5335C214.855 91.5335 218.616 111.054 221.628 121.797C224.64 132.539 228.076 138.776 228.076 138.776L252.021 156.675L253.219 158.347L278.969 134.103Z" fill="#C964C0" stroke="#263238" stroke-miterlimit="10"/>
<path d="M241.023 178.285C241.023 178.285 236.031 200.071 236.031 211.725C236.031 223.379 236.331 226.397 237.088 226.857C237.845 227.317 246.423 228.822 247.172 228.671C247.921 228.521 250.184 227.76 250.184 227.76C250.184 227.76 261.249 175.409 262.406 168.872C263.562 162.334 265.268 148.139 265.268 148.139C265.268 148.139 252.621 159.007 249.16 162.819C245.699 166.631 245.999 166.757 244.493 169.624C243.175 172.443 242.017 175.335 241.023 178.285Z" fill="#C964C0" stroke="#263238" stroke-miterlimit="10"/>
<path d="M246.765 344.708C246.765 344.708 242.73 351.396 242.023 352.115C241.316 352.834 235.176 356.521 233.42 357.056C231.665 357.591 229.734 358.644 229.734 360.4C229.734 362.155 235.558 363.042 238.512 363.042C241.466 363.042 250.276 362.515 251.333 362.515C252.618 362.427 253.908 362.427 255.194 362.515C256.026 362.69 260.46 363.393 261.691 362.866C262.923 362.339 263.971 357.925 263.622 355.986C263.272 354.046 262.216 349.632 262.216 349.632L246.765 344.708Z" fill="white" stroke="#263238" stroke-miterlimit="10"/>
<path d="M300.486 351.404L297.507 356.345C295.561 358.117 293.507 359.767 291.359 361.286C285.976 364.63 293.647 366.644 297.183 366.402C299.679 366.235 304.205 366.226 305.611 365.566C308.879 363.613 312.044 361.492 315.096 359.212C317.375 357.448 317.55 355.509 317.201 353.21C316.761 351.197 316.114 349.236 315.27 347.358C315.27 347.358 305.969 344.357 303.331 346.48C301.772 347.679 300.75 349.449 300.486 351.404Z" fill="white" stroke="#263238" stroke-miterlimit="10"/>
<path d="M249.004 222.652L245.019 243.686C245.019 243.686 238.047 287.534 238.246 289.139C238.446 290.744 246.824 336.039 247.024 337.836C247.224 339.633 245.227 341.439 245.227 341.439L245.626 345.845C245.626 345.845 250.618 349.256 253.996 350.025C256.823 350.579 259.688 350.914 262.566 351.028C262.566 351.028 264.363 347.224 264.363 346.622C264.363 346.02 263.165 342.016 263.165 341.414C263.165 340.812 259.97 287.91 259.97 287.91L267.741 257.672C267.741 257.672 278.307 289.716 279.297 291.948C280.287 294.18 299.523 343.086 299.523 343.086C299.523 343.086 297.734 345.494 298.333 347.266C298.932 349.038 299.723 352.474 299.723 352.474C299.723 352.474 304.108 347.458 306.304 349.072C307.525 349.878 308.438 351.078 308.892 352.474L315.864 349.674C315.864 349.674 316.463 346.865 316.063 345.494C315.664 344.123 314.674 345.895 314.674 340.687C314.674 335.478 307.81 304.354 306.412 299.547C305.014 294.74 299.24 285.736 299.24 285.736L296.644 237.248V226.063L249.004 222.652Z" fill="#263238" stroke="#263238" stroke-miterlimit="10"/>
<path d="M282.522 136.544C282.522 136.544 277.381 134.872 275.292 135.85C273.204 136.828 255.94 155.178 255.707 156.332C255.474 157.486 246.921 215.086 245.532 219.525C244.142 223.964 251.813 229.557 251.813 229.557L256.464 231.664L260.416 226.982L260.183 232.6C260.183 232.6 272.289 232.834 275.991 232.366C279.693 231.898 294.137 228.186 294.137 228.186C294.137 228.186 297.166 177.692 297.398 176.755C297.631 175.819 299.978 143.792 299.978 143.792L295.551 140.991L282.522 136.544Z" fill="white" stroke="#263238" stroke-miterlimit="10"/>
<path d="M282.459 150.53L285.712 157.068C285.712 157.068 295.163 146.793 296.245 144.302C297.326 141.811 298.258 141.652 297.643 140.122C297.095 138.969 296.362 137.915 295.471 137.004C295.471 137.004 281.061 136.544 279.206 137.472C277.35 138.4 272.233 150.087 271.926 150.848L271.609 151.625L281.377 149.911L282.459 150.53Z" fill="white" stroke="#263238" stroke-miterlimit="10"/>
<path d="M278.072 137.89C278.072 137.89 246.149 167.693 244.493 169.658C242.837 171.622 241.023 178.285 241.023 178.285C241.023 178.285 243.886 165.578 244.942 163.613C245.999 161.649 268.579 138.341 268.579 138.341L274.603 134.103L280.776 135.616L278.072 137.89Z" fill="#C964C0" stroke="#263238" stroke-miterlimit="10"/>
<path d="M281.525 97.7535C281.525 97.7535 275.177 104.442 275.327 105.687C275.399 106.676 275.349 107.67 275.177 108.647C275.177 108.647 268.521 114.097 267.888 114.256C267.256 114.415 267.273 115.502 267.739 116.43C268.205 117.358 268.978 117.525 269.286 118.302C269.594 119.08 269.444 121.262 268.205 125.617C266.965 129.973 266.341 130.633 267.581 131.377C268.82 132.121 277.806 135.273 277.806 135.273C277.806 135.273 278.114 148.348 278.738 150.213C279.362 152.077 282.457 150.53 282.457 150.53L295.469 138.074V135.892L305.695 123.594C305.695 123.594 308.482 113.47 305.387 108.647C302.292 103.823 286.018 96.9426 285.552 96.8172C284.856 96.6301 284.124 96.6176 283.422 96.7808C282.72 96.9441 282.069 97.2781 281.525 97.7535Z" fill="white" stroke="#263238" stroke-miterlimit="10"/>
<path d="M292.866 93.8579C292.866 93.8579 295.496 92.3029 293.79 91.5255C292.493 91.0315 291.06 91.0315 289.763 91.5255C289.297 91.6759 290.229 86.8522 287.592 88.2567C284.954 89.6612 281.551 93.0804 280.778 95.4128C280.004 97.7453 282.325 102.268 284.338 102.577C286.542 103.068 288.715 103.691 290.845 104.442C291.215 104.761 291.464 105.2 291.549 105.683C291.634 106.166 291.55 106.664 291.311 107.092C290.537 108.806 286.044 112.225 286.668 113.161C287.292 114.097 288.831 116.279 288.831 116.279C288.831 116.279 287.284 119.08 287.592 119.857C287.85 120.366 288.294 120.756 288.831 120.944C288.831 120.944 291.627 119.272 293.948 119.857C296.269 120.443 295.346 124.372 294.414 126.086C293.482 127.799 292.242 129.823 292.242 129.823C292.242 129.823 294.88 135.892 295.496 135.892C296.111 135.892 303.707 128.268 306.961 124.84C310.214 121.412 311.611 115.502 310.838 110.519C310.064 105.537 301.852 98.8154 299.19 97.2855C296.527 95.7556 292.866 93.8579 292.866 93.8579Z" fill="#263238" stroke="#263238" stroke-miterlimit="10"/>
<path d="M270.991 111.296C269.593 110.36 270.683 106.005 271.923 105.536C273.163 105.068 275.176 108.646 275.176 108.646C275.176 108.646 281.832 113.788 281.99 114.716C282.148 115.644 278.429 118.453 276.416 118.611C274.402 118.77 273.62 118.77 273.62 115.811C273.598 114.077 273.971 112.361 274.71 110.795" stroke="#263238" stroke-miterlimit="10"/>
<path d="M281.992 114.716L290.362 120.476" stroke="#263238" stroke-miterlimit="10"/>
<path d="M277.965 108.68C278.887 108.801 279.765 109.149 280.521 109.693C281.277 110.237 281.888 110.96 282.3 111.798" stroke="#263238" stroke-miterlimit="10"/>
<path d="M270.684 122.189C272.63 122.93 274.778 122.93 276.724 122.189" stroke="#263238" stroke-miterlimit="10"/>
<path d="M292.215 129.822C292.215 129.822 288.962 130.6 287.414 129.822" stroke="#263238" stroke-miterlimit="10"/>
<path d="M277.805 135.273L283.695 134.956L277.963 140.406L277.805 135.273Z" fill="#263238" stroke="#263238" stroke-miterlimit="10"/>
<path d="M297.643 140.097C297.643 140.097 294.531 145.464 291.486 156.248C288.441 167.033 285.246 199.628 285.246 203.165C285.246 206.701 293.4 249.145 294.04 250.716C294.681 252.288 298.691 252.472 298.691 252.472C298.691 252.472 310.522 244.446 311.171 242.197C311.82 239.949 303.683 202.186 303.683 202.186C303.683 202.186 318.559 153.347 317.594 152.704C316.629 152.06 297.643 140.097 297.643 140.097Z" fill="#C964C0" stroke="#263238" stroke-miterlimit="10"/>
<path d="M303.159 145.464C303.159 145.464 293.242 185.308 290.845 192.213C289.551 196.126 287.663 199.815 285.246 203.148" stroke="#263238" stroke-miterlimit="10"/>
<path d="M299.847 245.6C299.847 245.6 298.349 247.916 297.55 248.835C296.752 249.755 294.555 250.808 295.587 251.494C296.619 252.179 299.389 250.917 300.08 249.88L299.847 245.6Z" fill="white" stroke="#263238" stroke-miterlimit="10"/>
<path d="M306.12 236.63C306.12 236.63 300.079 242.482 299.73 243.059C299.38 243.635 299.039 248.493 299.039 249.88C299.011 250.36 299.128 250.837 299.374 251.249C299.621 251.661 299.985 251.988 300.42 252.188C300.876 252.268 301.339 252.307 301.802 252.305L303.299 252.079C304.226 252.021 305.156 252.097 306.061 252.305C307.442 252.656 310.221 252.656 310.895 251.962C311.473 251.224 311.938 250.404 312.276 249.529C312.807 248.859 313.162 248.066 313.308 247.222C313.541 245.834 314.922 238.862 314.922 238.862C314.922 238.862 305.138 235.518 306.12 236.63Z" fill="white" stroke="#263238" stroke-miterlimit="10"/>
<path d="M301.801 252.305L302.841 245.834" stroke="#263238" stroke-miterlimit="10"/>
<path d="M304.797 251.962L305.945 246.411" stroke="#263238" stroke-miterlimit="10"/>
<path d="M308.25 252.188L309.282 246.988" stroke="#263238" stroke-miterlimit="10"/>
<path d="M317.541 152.712C317.541 152.712 333.839 188.936 336.078 194.562C338.316 200.188 336.56 202.228 336.078 203.666C335.595 205.104 317.15 240.166 317.15 240.166L306.117 236.63L317.482 199.846L309.071 183.92L317.541 152.712Z" fill="#C964C0" stroke="#263238" stroke-miterlimit="10"/>
<path d="M229.042 89.5275C229.101 87.1785 229.402 84.8419 229.94 82.5553C230.723 79.9721 230.165 78.8435 229.599 79.0692C229.034 79.2949 228.376 79.4119 228.035 81.4351C227.759 82.8428 227.609 84.2724 227.586 85.707C227.586 86.9443 229.042 89.5275 229.042 89.5275Z" fill="white" stroke="#263238" stroke-miterlimit="10"/>
<path d="M216.953 76.7533C217.152 76.4022 218.425 77.7732 219.307 78.5925C218.958 77.8735 218.866 77.8317 218.3 76.5944C217.837 75.7792 217.678 74.825 217.851 73.9025C218.151 72.7321 220.547 75.3321 221.237 76.6864C220.888 75.5996 220.147 73.3424 219.981 72.6652C219.756 71.7624 219.873 70.5251 220.539 70.082C221.204 69.6389 222.203 71.9881 222.203 71.9881C223.031 72.3811 223.73 73.005 224.216 73.7855L228.018 81.4349L228.359 86.8271L231.82 100.094L239.883 111.339L230.997 115.669L225.78 103.246C224.882 102.455 224.093 101.547 223.434 100.546C222.702 99.4005 222.028 95.1536 221.628 91.7177C221.326 90.8613 221.098 89.9802 220.946 89.0843C220.613 87.1782 220.023 82.6889 220.023 82.6889C220.023 82.6889 218.317 80.6407 217.402 79.2613C217.151 78.9007 216.981 78.4898 216.903 78.0568C216.826 77.6238 216.843 77.1791 216.953 76.7533Z" fill="white" stroke="#263238" stroke-miterlimit="10"/>
<path d="M221.438 77.2715C222.211 78.4819 222.906 79.7413 223.518 81.0418C223.855 81.945 224.132 82.8694 224.35 83.809" stroke="#263238" stroke-miterlimit="10"/>
<path d="M222.219 71.9883C222.219 71.9883 225.131 78.8435 225.796 79.855C226.393 81.0173 226.736 82.2942 226.803 83.6003" stroke="#263238" stroke-miterlimit="10"/>
<path d="M219.309 78.584C220.199 79.389 221.015 80.2732 221.746 81.2257C222.013 81.8193 222.861 85.0546 222.861 85.0546" stroke="#263238" stroke-miterlimit="10"/>
<path d="M289.792 307.088C289.792 307.088 290.932 322.905 289.368 330.597C287.804 338.288 282.138 349.691 281.572 351.254C281.007 352.817 276.223 370.348 276.322 371.059C276.422 371.77 279.867 377.897 279.442 380.882C279.018 383.866 278.311 384.736 277.038 385.02C275.765 385.304 269.658 385.162 265.548 388.582C261.438 392.001 255.339 391.282 253.218 391.14C251.096 390.998 245.563 390.998 245.272 389.861C244.981 388.724 248.251 386.157 249.956 385.447C251.662 384.736 256.196 380.882 257.444 379.595C258.692 378.307 263.543 372.071 264.533 369.621C265.523 367.172 268.36 330.162 269.209 324.477C270.049 319.297 270.477 314.059 270.49 308.81C270.349 306.928 270.589 305.037 271.197 303.251L289.792 307.088Z" fill="white" stroke="#263238" stroke-miterlimit="10"/>
<path d="M249.956 385.446C250.931 384.943 251.851 384.341 252.702 383.649C253.845 384.24 255.071 384.655 256.338 384.878C257.611 384.878 266.971 378.608 270.232 376.752C272.87 375.255 276.63 374.879 277.961 374.787C278.793 376.852 279.667 379.302 279.442 380.882C279.018 383.874 278.311 384.736 277.038 385.02C275.765 385.304 269.658 385.162 265.548 388.581C261.438 392 255.339 391.281 253.218 391.139C251.096 390.997 245.563 390.997 245.272 389.86C244.981 388.723 248.251 386.157 249.956 385.446Z" fill="#C964C0" stroke="#263238" stroke-miterlimit="10"/>
<path d="M336.203 302.891C336.203 302.891 341.195 311.594 343.375 320.138C345.555 328.682 345.205 365.19 345.538 365.859C345.871 366.527 348.866 373.567 350.372 376.576C351.878 379.586 355.539 384.1 355.539 385.454C355.539 386.809 352.876 386.792 352.369 386.792H343.217C343.217 386.792 340.721 385.956 340.213 384.953C339.706 383.95 339.381 379.594 338.217 378.265C337.052 376.936 334.215 373.408 334.057 371.577C333.898 369.746 335.055 364.053 335.055 362.699C335.055 361.344 331.386 346.455 330.221 342.635C329.056 338.814 323.224 328.732 322.558 320.355C321.893 311.978 321.219 308.3 321.219 308.3L336.203 302.891Z" fill="white" stroke="#263238" stroke-miterlimit="10"/>
<path d="M341.952 364.036C343.841 364.588 345.496 366.595 346.428 367.915C347.518 370.423 349.298 374.47 350.347 376.576C351.844 379.594 355.513 384.1 355.513 385.455C355.513 386.809 352.851 386.792 352.344 386.792H343.192C343.192 386.792 340.696 385.956 340.188 384.953C339.681 383.95 339.356 379.594 338.191 378.265C337.026 376.936 334.189 373.408 334.031 371.577C334.071 369.686 334.268 367.801 334.622 365.942C335.565 364.999 336.741 364.325 338.029 363.99C339.318 363.655 340.672 363.671 341.952 364.036Z" fill="#C964C0" stroke="#263238" stroke-miterlimit="10"/>
<path d="M352.371 386.792H343.219C343.219 386.792 340.723 385.956 340.215 384.953C339.708 383.95 339.383 379.594 338.218 378.265C337.237 377.136 335.074 374.461 334.316 372.547L334.766 372.07C334.766 372.07 339.25 368.442 342.537 370.398C345.823 372.355 346.697 376.994 348.768 379.302C350.84 381.609 354.343 383.323 355.549 385.438C355.541 386.792 352.878 386.792 352.371 386.792Z" fill="#263238" stroke="#263238" stroke-miterlimit="10"/>
<path d="M339.34 168.036C339.34 168.036 344.54 196.594 344.69 197.53C344.84 198.467 349.058 212.411 348.434 215.538C347.81 218.664 334.872 245.132 334.872 245.132C334.872 245.132 331.602 239.656 331.136 239.339C330.671 239.021 332.384 212.879 332.384 212.879L327.234 196.159C327.234 196.159 327.234 179.08 329.423 175.803C331.611 172.526 338.458 166.364 339.34 168.036Z" fill="#C964C0" stroke="#263238" stroke-miterlimit="10"/>
<path d="M328.891 199.679C328.891 199.679 336.262 197.781 340.372 193.651" stroke="#263238" stroke-miterlimit="10"/>
<path d="M332.316 205.531C332.316 205.531 337.974 209.151 343.798 209.151" stroke="#263238" stroke-miterlimit="10"/>
<path d="M340.913 232.567C337.785 239.163 334.873 245.107 334.873 245.107C334.873 245.107 331.603 239.631 331.137 239.314C330.963 239.205 331.087 235.635 331.304 231.163C332.659 232.188 334.25 232.855 335.93 233.1C337.609 233.346 339.323 233.162 340.913 232.567Z" fill="white" stroke="#263238" stroke-miterlimit="10"/>
<path d="M326.021 216.942L336.129 243.134C338.967 250.507 339.383 289.824 339.383 289.824L338.551 304.563C338.551 304.563 322.21 312.271 303.548 311.427C291.782 310.804 280.138 308.723 268.879 305.232C268.879 305.232 268.962 271.106 273.122 259.72C277.282 248.334 280.294 236.772 280.294 236.772L281.692 219.124L326.021 216.942Z" fill="#263238" stroke="#263238" stroke-miterlimit="10"/>
<path d="M335.197 177.232C334.906 177.976 327.709 201.577 327.709 201.577C327.709 201.577 325.995 207.22 325.837 207.847C325.835 210.723 325.99 213.598 326.303 216.457C326.461 217.084 327.601 215.412 327.135 217.603C326.669 219.793 324.639 219.952 323.399 220.579C316.791 223.161 309.764 224.49 302.674 224.5C295.566 224.261 288.482 223.527 281.475 222.301C280.662 220.854 279.985 219.335 279.453 217.762C279.137 216.357 280.019 213.164 280.019 213.164L275.859 179.464C275.859 179.464 258.512 156.424 256.14 154.794C253.769 153.164 250.666 150.773 249.776 150.029C248.694 148.948 247.884 147.624 247.413 146.167C246.814 144.495 231.039 115.653 231.039 115.653C231.039 115.653 235.033 111.339 236.031 111.046C237.157 110.787 238.295 110.589 239.442 110.453L259.959 133.518C259.959 133.518 263.953 135.457 264.843 135.9C265.733 136.344 265.584 138.877 265.584 138.877L271.832 141.686L292.773 148.332L302.757 150.756C302.757 150.756 331.045 161.465 332.818 162.36C334.59 163.254 339.474 166.54 339.324 168.011C339.174 169.483 336.512 175.602 336.512 175.602" fill="#C964C0"/>
<path d="M335.197 177.232C334.906 177.976 327.709 201.577 327.709 201.577C327.709 201.577 325.995 207.22 325.837 207.847C325.835 210.723 325.99 213.598 326.303 216.457C326.461 217.084 327.601 215.412 327.135 217.603C326.669 219.793 324.639 219.952 323.399 220.579C316.791 223.161 309.764 224.49 302.674 224.5C295.566 224.261 288.482 223.527 281.475 222.301C280.662 220.854 279.985 219.335 279.453 217.762C279.137 216.357 280.019 213.164 280.019 213.164L275.859 179.464C275.859 179.464 258.512 156.424 256.14 154.794C253.769 153.164 250.666 150.773 249.776 150.029C248.694 148.948 247.884 147.624 247.413 146.167C246.814 144.495 231.039 115.653 231.039 115.653C231.039 115.653 235.033 111.339 236.031 111.046C237.157 110.787 238.295 110.589 239.442 110.453L259.959 133.518C259.959 133.518 263.953 135.457 264.843 135.9C265.733 136.344 265.584 138.877 265.584 138.877L271.832 141.686L292.773 148.332L302.757 150.756C302.757 150.756 331.045 161.465 332.818 162.36C334.59 163.254 339.474 166.54 339.324 168.011C339.174 169.483 336.512 175.602 336.512 175.602" stroke="#263238" stroke-miterlimit="10"/>
<path d="M292.258 198.174C296.817 204.31 302.907 211.709 308.066 215.22" stroke="#263238" stroke-miterlimit="10"/>
<path d="M285.477 188.443C285.477 188.443 287.631 191.787 290.835 196.234" stroke="#263238" stroke-miterlimit="10"/>
<path d="M313.797 213.907C314.563 214.441 315.357 214.932 316.176 215.379" stroke="#263238" stroke-miterlimit="10"/>
<path d="M303.082 204.26C305.894 207.275 308.917 210.086 312.126 212.67" stroke="#263238" stroke-miterlimit="10"/>
<path d="M261.888 139.612C261.888 139.612 255.082 147.496 255.232 145.113C255.382 142.731 254.633 142.731 256.896 140.933" stroke="#263238" stroke-miterlimit="10"/>
<path d="M302.15 108.906C302.15 108.906 293.83 113.88 293.131 115.485C292.432 117.09 292.074 120.986 291.184 121.88C290.294 122.775 285.177 124.012 285.36 125.224C285.543 126.437 287.482 130.24 287.482 130.24C287.482 130.24 287.132 142.145 287.132 143.031C287.132 143.917 288.189 144.452 289.254 144.628C290.319 144.804 292.79 145.523 292.79 145.523V148.365C292.79 148.365 299.679 150.672 300.386 150.672C301.093 150.672 305.694 151.023 305.694 151.023C305.694 151.023 315.063 144.812 318.066 135.925C321.07 127.039 318.066 120.117 314.738 116.028C311.41 111.94 302.15 108.906 302.15 108.906Z" fill="white" stroke="#263238" stroke-miterlimit="10"/>
<path d="M303.565 132.924C303.565 132.924 309.389 128.125 310.812 132.038C312.235 135.95 310.987 138.074 309.223 138.784C307.459 139.495 303.208 140.916 303.208 140.916C303.208 140.916 299.148 150.33 298.79 154.242C298.432 158.155 295.961 161.173 297.201 163.831C298.44 166.489 300.204 167.568 308.849 168.454C317.493 169.34 327.386 168.061 333.567 165.394C339.749 162.727 338.909 153.356 337.669 151.182C336.429 149.009 330.597 141.585 330.772 137.681C330.947 133.777 336.255 127.749 332.494 116.931C329.166 107.359 312.917 101.44 308.499 101.975C304.081 102.51 300.179 101.975 300.179 104.818C299.981 108.306 301.122 111.738 303.366 114.407C306.369 118.319 304.597 121.337 303.89 122.048C303.183 122.758 300.886 125.066 301.244 127.9C301.533 129.76 302.338 131.501 303.565 132.924Z" fill="#263238" stroke="#263238" stroke-miterlimit="10"/>
<path d="M293.345 133.944C293.345 133.944 292.73 136.611 288.645 135.791" stroke="#263238" stroke-miterlimit="10"/>
<path d="M296.001 119.782C295.874 119.227 295.563 118.731 295.118 118.377C294.673 118.023 294.122 117.832 293.555 117.835" stroke="#263238" stroke-miterlimit="10"/>
<path d="M292.488 122.056C292.089 122.892 292.005 123.653 292.305 123.803C292.605 123.954 293.187 123.419 293.586 122.608C293.986 121.797 294.069 121.011 293.769 120.861C293.47 120.71 292.862 121.262 292.488 122.056Z" fill="#263238"/>
<path d="M123.642 113.796C123.642 113.796 124.099 112.868 122.727 111.489C121.354 110.109 115.239 106.264 113.392 105.027C111.545 103.789 109.415 99.9604 102.068 104.416C94.7215 108.872 89.8543 116.873 88.9141 122.557C87.974 128.242 91.668 135.164 98.5487 139.01C102.331 141.218 106.476 142.727 110.787 143.466L111.553 144.845L133.285 141.618C133.285 141.618 136.804 137.932 136.346 135.766C135.889 133.601 132.062 126.395 132.062 126.395C132.062 126.395 134.508 122.7 133.726 121.63C132.944 120.559 123.642 113.796 123.642 113.796Z" fill="white" stroke="#263238" stroke-miterlimit="10"/>
<path d="M114.615 132.397C114.615 132.397 111.553 133.475 110.33 133.935C109.107 134.395 105.587 133.316 104.057 130.24C102.526 127.163 104.822 123.937 106.503 123.636C108.183 123.335 109.564 124.405 110.488 124.246C111.411 124.087 111.403 123.017 111.553 122.097C111.703 121.178 109.107 119.481 109.107 119.481C109.107 119.481 112.626 115.635 113.541 113.946C114.457 112.258 107.268 110.602 106.969 109.181C106.669 107.76 113.392 105.001 113.392 105.001C111.553 103.772 109.415 99.935 102.068 104.391C94.7215 108.847 89.8543 116.872 88.9141 122.557C87.974 128.242 91.668 135.164 98.5487 139.01C101.82 140.869 105.335 142.256 108.99 143.131L110.604 142.237C110.604 142.237 111.37 141.317 113.209 138.541C114.331 136.702 114.825 134.544 114.615 132.397Z" fill="#263238" stroke="#263238" stroke-miterlimit="10"/>
<path d="M122.57 113.177C122.57 113.177 120.582 112.868 119.051 115.635" stroke="#263238" stroke-miterlimit="10"/>
<path d="M132.063 129.471C132.063 129.471 129.151 130.709 125.324 127.323" stroke="#263238" stroke-miterlimit="10"/>
<path d="M123.394 117.683C123.926 118.745 123.993 119.79 123.535 120.024C123.078 120.258 122.287 119.573 121.755 118.511C121.222 117.449 121.156 116.404 121.613 116.179C122.071 115.953 122.861 116.622 123.394 117.683Z" fill="#263238"/>
<path d="M130.072 143.006C130.072 143.006 111.86 141.468 110.787 143.466C109.713 145.464 109.871 149.46 109.871 149.46L129.914 144.845L130.072 143.006Z" fill="#C964C0" stroke="#263238" stroke-miterlimit="10"/>
<path d="M159.742 134.37C159.742 134.37 196.949 93.5565 197.182 92.9713C197.415 92.3861 198.538 79.1941 198.646 78.2745C198.755 77.3549 198.463 75.9337 199.562 74.5208C200.66 73.108 202.748 69.7974 202.748 69.7974C203.411 68.3669 204.147 66.9717 204.953 65.6174C205.502 64.9068 206.867 63.8367 207.749 62.8586C208.631 61.8805 209.962 61.1114 210.669 61.6631C211.376 62.2149 211.709 64.5223 211.709 64.5223C211.709 64.5223 212.632 64.5223 212.924 65.9602C213.215 67.3981 210.927 74.8552 210.835 75.6243C210.744 76.3935 210.053 83.4242 209.238 87.6627C208.423 91.9013 207.133 94.8356 205.868 96.3906C204.604 97.9455 191.134 117.667 187.747 121.471C184.361 125.274 170.983 148.657 170.983 148.657L159.742 134.37Z" fill="white" stroke="#263238" stroke-miterlimit="10"/>
<path d="M201.793 71.4775C201.793 71.4775 199.93 76.6942 199.847 77.4131C199.763 78.1321 199.289 82.0613 199.289 82.0613" stroke="#263238" stroke-miterlimit="10"/>
<path d="M205.835 64.8564C205.835 64.8564 203.431 71.603 203.164 72.6647C202.898 73.7264 202.648 75.1727 202.648 75.1727" stroke="#263238" stroke-miterlimit="10"/>
<path d="M211.659 64.4805C211.147 66.11 210.544 67.7093 209.853 69.2708C208.96 71.564 208.264 73.9303 207.773 76.3433" stroke="#263238" stroke-miterlimit="10"/>
<path d="M209.215 62.0059C209.215 62.0059 206.394 69.2122 205.995 70.7588C205.595 72.3054 205.046 74.9973 204.863 75.3317" stroke="#263238" stroke-miterlimit="10"/>
<path d="M149.852 159.709L172.499 222.426L167.407 229.582L162.057 219.533L157.847 198.115L149.852 159.709Z" fill="#263238" stroke="#263238" stroke-miterlimit="10"/>
<path d="M100.997 205.965C100.997 205.965 98.7508 215.003 100.307 216.215C101.862 217.427 116.04 221.774 116.389 221.231C116.739 220.687 116.556 214.977 116.214 213.414C115.873 211.851 113.278 209.769 113.278 209.769L100.997 205.965Z" fill="white" stroke="#263238" stroke-miterlimit="10"/>
<path d="M104.971 179.74C104.971 179.74 100.478 202.671 100.811 203.541C101.143 204.41 112.733 205.798 112.733 205.798L104.971 179.74Z" fill="#C964C0" stroke="#263238" stroke-miterlimit="10"/>
<path d="M99.9651 199.194C99.9651 199.194 98.5757 206.492 100.306 207.361C102.037 208.231 112.412 211.006 113.277 209.794C114.142 208.582 112.928 203.365 112.928 203.365C112.928 203.365 100.83 197.806 99.9651 199.194Z" fill="#C964C0" stroke="#263238" stroke-miterlimit="10"/>
<path d="M148.095 370.465C148.095 370.465 153.728 374.703 155.333 375.113C156.939 375.523 162.572 377.328 163.171 378.34C163.77 379.352 163.171 382.587 162.339 383.799C161.507 385.011 150.084 386.825 144.651 386.223C139.218 385.622 127.362 388.439 126.155 384.602C124.949 380.764 126.987 375.113 126.987 375.113C126.987 375.113 144.501 371.276 148.095 370.465Z" fill="white" stroke="#263238" stroke-miterlimit="10"/>
<path d="M158.976 382.787C156.763 383.389 147.919 383.799 137.46 384.2C130.804 384.459 127.418 383.163 125.812 382.185C125.833 383.004 125.959 383.816 126.187 384.601C127.393 388.439 139.258 385.613 144.682 386.223C150.107 386.834 161.572 385.011 162.371 383.799C162.766 383.138 163.048 382.414 163.203 381.659L158.976 382.787Z" fill="white" stroke="#263238" stroke-miterlimit="10"/>
<path d="M74.3466 358.343C74.3466 358.343 69.521 368.442 70.3197 370.665C71.1184 372.889 73.5396 373.29 75.7527 374.101C77.9658 374.912 83.5901 374.703 85.1959 375.715C86.8016 376.726 94.4477 380.162 98.0669 380.731C101.686 381.299 105.505 379.719 105.904 378.106C106.304 376.492 100.08 371.644 97.6592 370.03C95.2381 368.417 91.4275 362.757 91.4275 362.757L74.3466 358.343Z" fill="white" stroke="#263238" stroke-miterlimit="10"/>
<path d="M82.3677 373.09C78.2747 371.941 74.2705 370.493 70.3869 368.759C70.2145 369.38 70.1917 370.034 70.3204 370.665C71.1524 372.889 73.5402 373.29 75.7533 374.101C77.9665 374.912 83.5908 374.703 85.1965 375.715C86.8023 376.726 94.4484 380.162 98.0676 380.731C101.687 381.299 105.506 379.719 105.905 378.106C105.923 377.625 105.753 377.157 105.431 376.802C103.767 377.83 101.462 379 99.6733 379.117C96.4535 379.351 87.4097 374.302 82.3677 373.09Z" fill="white" stroke="#263238" stroke-miterlimit="10"/>
<path d="M114.156 230.326C114.156 230.326 109.722 247.473 109.522 252.321C109.414 255.552 109.481 258.787 109.722 262.011C109.722 262.011 106.51 264.435 107.109 266.458C107.471 267.678 108.012 268.836 108.715 269.894C108.715 269.894 101.077 299.154 100.071 300.592C99.0639 302.03 88.4226 318.574 85.6021 324.226C82.7817 329.877 76.1506 353.486 76.1506 353.486C75.3731 354.269 74.8186 355.248 74.5449 356.32C74.3452 357.733 73.9375 360.157 73.9375 360.157C74.8111 361.616 76.0112 362.85 77.4424 363.761C78.8737 364.673 80.4967 365.236 82.1826 365.407C88.2146 366.243 91.4261 365.006 91.4261 365.006C92.1089 363.96 92.5887 362.795 92.8405 361.57C93.2399 359.547 93.8389 356.32 93.8389 356.32L105.096 336.724L123.791 302.206L129.424 286.046C129.424 286.046 132.036 309.88 131.836 310.892C131.637 311.903 126.412 330.061 126.412 338.948C126.412 347.834 127.011 366.419 127.011 366.419C127.011 366.419 125.405 369.244 125.804 370.858L126.204 372.48L127.036 375.105C127.036 375.105 134.873 374.896 138.492 374.269C142.112 373.642 148.144 370.431 148.144 370.431C148.144 370.431 148.743 367.606 148.144 366.594C147.452 365.674 146.911 364.65 146.538 363.56C146.019 361.512 145.951 359.375 146.338 357.298C146.937 354.472 153.169 312.079 155.582 301.37C157.994 290.66 158.594 256.125 158.394 249.864C158.297 246.275 157.96 242.698 157.387 239.154L157.795 231.881C157.795 231.881 146.538 227.032 136.887 226.43C127.235 225.829 115.579 227.643 115.579 227.643L114.156 230.326Z" fill="#263238" stroke="#263238" stroke-miterlimit="10"/>
<path d="M117.969 263.022L125.407 275.144L128.618 284.641" stroke="#8F8F8F" stroke-miterlimit="10"/>
<path d="M131.746 262.704C133.152 261.45 134.542 260.105 135.074 259.586C136.081 258.583 137.487 244.647 137.695 244.037" stroke="#8F8F8F" stroke-miterlimit="10"/>
<path d="M116.961 245.851C116.961 245.851 116.961 256.359 118.167 258.583C119.374 260.807 127.211 265.647 128.418 265.271" stroke="#8F8F8F" stroke-miterlimit="10"/>
<path d="M119.176 241.211C119.176 241.211 129.992 239.389 137.064 241.813" stroke="#263238" stroke-miterlimit="10"/>
<path d="M146.032 294.874C146.299 300.801 146.54 309.144 145.907 311.301C145.314 313.239 144.574 315.128 143.694 316.952C143.095 318.574 143.902 320.388 143.495 321.4C143.087 322.411 141.889 340.168 140.882 344.808C139.875 349.448 139.676 359.555 139.676 359.555" stroke="#8F8F8F" stroke-miterlimit="10"/>
<path d="M149.527 234.916C149.527 234.916 148.121 252.689 147.513 258.324C146.906 263.959 144.901 272.661 145.109 276.298C145.317 279.935 145.708 288.621 145.708 288.621C145.708 288.621 145.758 289.398 145.824 290.677" stroke="#8F8F8F" stroke-miterlimit="10"/>
<path d="M140.084 362.18V366.828C140.298 366.877 140.5 366.969 140.677 367.098C140.854 367.227 141.004 367.392 141.116 367.581C141.228 367.77 141.3 367.981 141.329 368.199C141.358 368.417 141.342 368.639 141.282 368.851C140.946 369.94 140.322 370.917 139.477 371.677" stroke="#263238" stroke-miterlimit="10"/>
<path d="M109.875 149.46C109.875 149.46 103.293 156.691 101.613 164.993C99.9321 173.294 105.59 184.513 105.59 184.513L115.075 219.717C115.075 219.717 112.321 221.874 112.171 223.722C112.021 225.569 112.778 229.866 114.159 230.326C115.54 230.786 136.956 230.635 136.956 230.635C136.956 230.635 158.222 234.481 158.68 234.481C159.137 234.481 161.592 232.324 161.592 229.866C161.592 227.408 161.134 223.872 160.976 222.342C160.818 220.812 154.703 180.375 154.095 177.608C153.488 174.841 153.263 163.906 153.263 163.906L166.076 154.35L168.273 151.525L158.472 135.641C158.472 135.641 142.772 139.503 142.006 140.113C141.241 140.724 109.875 149.46 109.875 149.46Z" fill="#C964C0" stroke="#263238" stroke-miterlimit="10"/>
<path d="M154.849 137.497C154.849 137.497 165.208 156.407 165.84 156.332C166.472 156.256 172.213 151.993 172.629 151.115C173.045 150.237 172.355 148.298 172.355 148.298C172.355 148.298 161.539 134.127 160.607 133.25C160.451 133.072 160.259 132.929 160.044 132.832C159.828 132.734 159.595 132.684 159.359 132.684C159.123 132.684 158.889 132.734 158.674 132.832C158.459 132.929 158.267 133.072 158.111 133.25C157.761 133.818 154.159 134.311 154.849 137.497Z" fill="#C964C0" stroke="#263238" stroke-miterlimit="10"/>
<path d="M153.26 163.897L133.109 179.012" stroke="#263238" stroke-miterlimit="10"/>
<path d="M129.684 201.727C128.718 203.442 127.646 205.095 126.473 206.676" stroke="#263238" stroke-miterlimit="10"/>
<path d="M140.05 177.232C137.795 184.846 134.776 192.21 131.039 199.21" stroke="#263238" stroke-miterlimit="10"/>
<path d="M132.745 202.471C132.745 202.471 125.307 213.69 121.812 216.724" stroke="#263238" stroke-miterlimit="10"/>
</svg>
