<svg width="269" height="246" viewBox="0 0 269 246" fill="none" xmlns="http://www.w3.org/2000/svg">
<path d="M331.367 4C297.199 28.2597 275.372 65.9532 267.941 81.2703C245.339 127.852 239.442 151.686 196.168 227.467C152.895 303.248 147.863 227.467 124.952 317.797C102.041 408.127 3.99949 444.794 3.99949 444.794" stroke="#49BC9F" stroke-width="6.19475" stroke-linecap="round"/>
<path d="M333.184 12.1016C299.015 36.3613 277.189 74.0547 269.757 89.3718C247.155 135.954 241.258 159.788 197.985 235.569C154.711 311.349 149.68 235.569 126.769 325.899C103.858 416.229 5.8159 452.896 5.8159 452.896" stroke="#F47A53" stroke-width="6.19475" stroke-linecap="round"/>
<path d="M335 20.2056C300.832 44.4653 279.005 82.1588 271.573 97.4758C248.972 144.058 243.075 167.892 199.801 243.673C156.528 319.453 151.496 243.673 128.585 334.003C105.674 424.333 7.63231 461 7.63231 461" stroke="#C964C0" stroke-width="6.19475" stroke-linecap="round"/>
</svg>
