<svg width="972" height="593" viewBox="0 0 972 593" fill="none" xmlns="http://www.w3.org/2000/svg">
<path d="M34 -19C105.186 16.0974 143.604 40.3529 206.145 89.6847C292.753 158.002 275 191.532 400.94 295.318C526.88 399.105 594.225 338.69 594.225 422.372C594.225 506.054 965 601 965 601" stroke="#49BC9F" stroke-width="14" stroke-linecap="round"/>
<path d="M21 -15C92.1475 20.0722 130.545 44.3104 193.051 93.6068C279.612 161.875 261.869 195.381 387.74 299.093C513.611 402.805 580.92 342.434 580.92 426.056C580.92 509.678 938 603 938 603" stroke="#F47A53" stroke-width="14" stroke-linecap="round"/>
<path d="M7 -15C78.1462 20.0974 116.543 44.3529 179.048 93.6847C265.608 162.002 247.864 195.532 373.733 299.318C499.602 403.105 566.91 342.69 566.91 426.372C566.91 510.054 895 605 895 605" stroke="#C964C0" stroke-width="14" stroke-linecap="round"/>
</svg>
